<svg height="512" viewBox="0 0 40 60" width="512" xmlns="http://www.w3.org/2000/svg"><g id="Page-1" fill="none" fill-rule="evenodd"><g id="062---Apple-Tree-Leaf" fill-rule="nonzero" transform="translate(0 -1)"><path id="Shape" d="m22 52.92v-4.92h-4v4.92c-11.37-.91-17.89-9.73-16.9-23.92 1.05-15 10.5-20 14.7-22s4.2-5 4.2-5 0 3 4.2 5 13.65 7 14.7 22c.99 14.19-5.53 23.01-16.9 23.92z" fill="#e8edfc"/><path id="Shape" d="m38.9 29c-1.05-15-10.5-20-14.7-22s-4.2-5-4.2-5c-.1185091 1.17623074-.6499543 2.27242498-1.5 3.094.7726129.79891018 1.6885159 1.44546979 2.7 1.906 4.2 2 13.65 7 14.7 22 .9 12.884-4.408 21.318-13.9 23.447v.473c11.37-.91 17.89-9.73 16.9-23.92z" fill="#cad9fc"/><path id="Shape" d="m22 48v10c-.0032948 1.1032019-.8967981 1.9967052-2 2-1.1011688-.0081672-1.9918328-.8988312-2-2v-10z" fill="#a4c2f7"/><path id="Shape" d="m18.59 59.41c.3898311.3926363.9262296.6041489 1.4791263.5832491.5528966-.0208999 1.0717965-.2723036 1.4308737-.6932491-.3211022-.3569545-.4991476-.8198725-.5-1.3v-5.08c-11.37-.91-17.89-9.73-16.9-23.92 1.05-15 10.5-20 14.7-22 1.0114841-.46053021 1.9273871-1.10708982 2.7-1.906-.8500457-.82157502-1.3814909-1.91776926-1.5-3.094-.1122285 1.17799983-.6446753 2.2762601-1.5 3.094-.7726129.79891018-1.6885159 1.44546979-2.7 1.906-4.2 2-13.65 7-14.7 22-.99 14.19 5.53 23.01 16.9 23.92v5.08c-.0028231.5305905.2101411 1.0395388.59 1.41z" fill="#fff"/><path id="Shape" d="m2.411 36.811-1.973.327c-.41276783-2.7153802-.52611378-5.4678759-.338-8.208l2 .14c-.17935597 2.5839477-.07506708 5.1797685.311 7.741z" fill="#fff"/><g fill="#428dff"><path id="Shape" d="m1.063 34c-.55228473.0027614-1.00223852-.4427153-1.00499994-.995-.00276143-.5522847.44271521-1.0022385.99499994-1.005h.01c.55228473 0 .99999994.4477153.99999994 1s-.44771521 1-.99999994 1z"/><path id="Shape" d="m20 61c1.6568542 0 3-1.3431458 3-3v-4.2c11.417-1.375 17.879-10.8 16.9-24.869-1.129-16.1-11.773-21.168-15.27-22.831-3.516-1.677-3.63-4.016-3.63-4.1v-.013c0-.55228475-.4477153-1-1-1s-1 .44771525-1 1c0 .127-.137 2.447-3.63 4.11s-14.141 6.734-15.27 22.834c-.01895135.265204.06849154.5270369.24300294.7276312s.42172245.3234334.68699706.3413688c.54937634.0322296 1.02380956-.3804562 1.068-.929.937-13.387 8.514-18.493 14.131-21.171 1.515222-.66310151 2.8195384-1.72910605 3.771-3.082.9512645 1.35268167 2.2551977 2.41865569 3.77 3.082 5.618 2.675 13.2 7.781 14.132 21.166.906 12.98-4.655 21.372-14.9 22.717v-3.783c0-.5522847-.4477153-1-1-1s-1 .4477153-1 1v10c0 .5522847-.4477153 1-1 1s-1-.4477153-1-1v-10c0-.5522847-.4477153-1-1-1s-1 .4477153-1 1v3.786c-1.6048805-.2122014-3.1778506-.6195483-4.684-1.213-1.8155432-.7462963-3.46655176-1.8424382-4.859-3.226-2.76222243-2.8842391-4.53024818-6.5758601-5.046-10.536-.10707687-.528092-.60076236-.8861879-1.136-.824-.2684905.0313497-.51164213.173537-.6706222.3921583-.15898007.2186214-.2193047.4937593-.1663778.7588417.58412371 4.3767608 2.55104724 8.4525038 5.614 11.633 1.57718595 1.5641553 3.44576967 2.8038757 5.5 3.649 1.7490997.6902245 3.5792712 1.1539844 5.446 1.38v4.2c0 1.6568542 1.3431458 3 3 3z"/><path id="Shape" d="m6.832 34.445c-.1982824-.297245-.5400812-.4661282-.8966441-.4430331s-.6737195.2346599-.832.555c-.15828049.32034-.1336383.7007881.0646441.9980331 5 7.507 11.313 8.431 13.838 8.476 0 .548971.445029.994.994.994s.994-.445029.994-.994c2.526-.045 8.833-.969 13.838-8.476.306518-.4595009.1825009-1.080482-.277-1.387s-1.080482-.1825009-1.387.277c-4.49 6.735-10.04 7.544-12.168 7.59v-4.135c2.256-.374 7.906-2.131 12.857-10.383.1918041-.3065026.2032165-.6926712.0298476-1.0099658-.173369-.3172946-.5045139-.5162906-.8660598-.5204443-.3615458-.0041536-.6971751.1871822-.8777878.5004101-4.354 7.254-9.114 8.971-11.143 9.38v-5.067c2.1-.581 7.528-2.773 10.914-10.392.2242276-.5047883-.0032117-1.0957724-.508-1.32s-1.0957724.0032117-1.32.508c-2.8 6.3-7.058 8.432-9.086 9.115v-5.97c3.2614513-1.1990077 5.5743213-4.126608 5.986-7.577.0706036-.3575492-.058904-.7251962-.3380135-.9595552-.2791096-.234359-.6636175-.2983137-1.0035621-.1669211-.3399445.1313926-.5814873.4373234-.6304244.7984763-.2910965 2.4647766-1.7984196 4.6194901-4.014 5.738v-3.574c0-.5522847-.4477153-1-1-1s-1 .4477153-1 1v3.573c-2.2153074-1.1183192-3.7225855-3.2725929-4.014-5.737-.0489371-.3611529-.2904799-.6670837-.6304244-.7984763-.3399446-.1313926-.7244525-.0674379-1.0035621.1669211-.2791095.234359-.4086171.602006-.3380135.9595552.4116787 3.450392 2.7245487 6.3779923 5.986 7.577v5.968c-2.028-.683-6.285-2.812-9.086-9.115-.22422761-.5047883-.81521174-.7322276-1.32-.508s-.73222761.8152117-.508 1.32c3.386 7.619 8.814 9.811 10.914 10.394v5.064c-2.026-.421-6.812-2.158-11.143-9.377-.18061272-.3132279-.516242-.5045637-.87778784-.5004101-.36154585.0041537-.69269079.2031497-.86605974.5204443-.17336896.3172946-.16195649.7034632.02984758 1.0099658 4.951 8.25 10.601 10.007 12.857 10.383v4.136c-2.127-.046-7.676-.854-12.168-7.591z"/><path id="Shape" d="m20 14c.5522847 0 1-.4477153 1-1v-2c0-.5522847-.4477153-1-1-1s-1 .4477153-1 1v2c0 .5522847.4477153 1 1 1z"/></g></g></g></svg>